<?xml version="1.0" encoding="UTF-8" standalone="no"?>
<svg
   xmlns:dc="http://purl.org/dc/elements/1.1/"
   xmlns:cc="http://creativecommons.org/ns#"
   xmlns:rdf="http://www.w3.org/1999/02/22-rdf-syntax-ns#"
   xmlns:svg="http://www.w3.org/2000/svg"
   xmlns="http://www.w3.org/2000/svg"
   id="svg8"
   version="1.1"
   viewBox="0 0 134.63622 120.10534"
   height="120.10534mm"
   width="134.63622mm">
  <defs
     id="defs2" />
  <metadata
     id="metadata5">
    <rdf:RDF>
      <cc:Work
         rdf:about="">
        <dc:format>image/svg+xml</dc:format>
        <dc:type
           rdf:resource="http://purl.org/dc/dcmitype/StillImage" />
        <dc:title></dc:title>
      </cc:Work>
    </rdf:RDF>
  </metadata>
  <g
     transform="translate(-80.681888,-131.94733)"
     id="layer1">
    <path
       id="path818"
       d="m 118.89661,131.94733 c -0.49218,0.4681 -0.98472,0.93595 -1.47691,1.40406 -12.24718,11.6551 -24.492067,23.31231 -36.737812,34.96893 5.297395,19.51175 10.597349,39.0231 15.892571,58.53544 17.141941,8.39904 34.281851,16.80089 51.425281,25.19691 17.14341,-8.39605 34.28387,-16.79783 51.4258,-25.19691 5.29523,-19.51234 10.59517,-39.0237 15.89257,-58.53544 -12.73789,-12.12476 -25.47542,-24.24971 -38.21472,-36.37299 -9.70218,10.58762 -19.4023,21.17712 -29.10365,31.76552 -9.70135,-10.5884 -19.40095,-21.17789 -29.10313,-31.76552 z"
       style="opacity:1;fill:#ffffff;fill-opacity:1;stroke:none;stroke-width:0.23504968;stroke-opacity:1" />
    <path
       transform="matrix(0.26458333,0,0,0.26458333,80.681888,131.94733)"
       id="path8"
       d="M 155.96651,405.02949 C 96.811827,375.8787 61.040959,357.3446 60.248133,355.43452 59.551881,353.75711 46.161154,304.97241 30.490958,247.02409 14.820763,189.07577 1.6931151,140.80224 1.3184085,139.74958 0.59803308,137.72584 141.51416,2.8551103 144.34898,2.8551103 c 0.91044,0 25.78524,26.3401467 55.27732,58.5336597 29.4921,32.193513 54.15257,58.53366 54.80105,58.53366 0.64851,0 25.52802,-26.552107 55.28786,-59.004683 29.75981,-32.452575 54.67418,-58.7927228 55.36525,-58.5336601 3.24005,1.2146063 141.98799,134.5323231 142.01717,136.4589931 0.052,3.43576 -58.56058,218.4359 -59.85558,219.55953 -3.77113,3.27208 -190.73616,93.46101 -193.47828,93.33082 -1.83963,-0.0873 -45.8484,-21.10413 -97.79726,-46.70394 z"
       style="fill:#fefefe;stroke-width:1.67239034;opacity:0;fill-opacity:0" />
    <path
       transform="matrix(0.26458333,0,0,0.26458333,80.681888,131.94733)"
       id="path4518"
       d="M 156.936,405.02818 C 104.60054,379.32826 61.53363,358.05407 61.231749,357.75218 59.858359,356.37878 1.9119699,140.42303 2.3785285,138.41682 2.9574241,135.92756 142.28927,2.8551103 144.31673,2.8551103 c 0.69143,0 25.38703,26.3401467 54.87913,58.5336597 29.49209,32.193513 54.3573,58.53366 55.25603,58.53366 0.89872,0 24.69662,-25.211283 52.88421,-56.025074 28.1876,-30.813791 52.62029,-57.4413474 54.29485,-59.1723471 2.96435,-3.0642535 4.91248,-1.3672281 73.85421,64.3347851 38.94525,37.115126 71.05403,68.050866 71.35283,68.746076 0.29881,0.69522 -12.80671,50.51659 -29.12339,110.71416 l -29.6667,109.45013 -95.93119,46.96087 c -52.76218,25.82848 -96.85239,46.93015 -97.97828,46.89259 -1.12588,-0.0376 -44.86697,-21.0955 -97.20243,-46.79544 z"
       style="opacity:0;fill:#fefefe;fill-opacity:0;stroke-width:1.67239034" />
    <path
       transform="matrix(0.26458333,0,0,0.26458333,80.681888,131.94733)"
       id="path4520"
       d="M 156.936,405.02818 C 104.60054,379.32826 61.53363,358.05407 61.231749,357.75218 59.858359,356.37878 1.9119699,140.42303 2.3785285,138.41682 2.9574241,135.92756 142.28927,2.8551103 144.31673,2.8551103 c 0.69143,0 25.38703,26.3401467 54.87913,58.5336597 29.49209,32.193513 54.3573,58.53366 55.25603,58.53366 0.89872,0 24.69662,-25.211283 52.88421,-56.025074 28.1876,-30.813791 52.62029,-57.4413474 54.29485,-59.1723471 2.96435,-3.0642535 4.91248,-1.3672281 73.85421,64.3347851 38.94525,37.115126 71.05403,68.050866 71.35283,68.746076 0.29881,0.69522 -12.80671,50.51659 -29.12339,110.71416 l -29.6667,109.45013 -95.93119,46.96087 c -52.76218,25.82848 -96.85239,46.93015 -97.97828,46.89259 -1.12588,-0.0376 -44.86697,-21.0955 -97.20243,-46.79544 z"
       style="opacity:0;fill:#fefefe;fill-opacity:0;stroke-width:1.67239034" />
  </g>
</svg>
